<?xml version="1.0" encoding="UTF-8" standalone="no"?>
<!DOCTYPE svg PUBLIC "-//W3C//DTD SVG 1.1//EN" "http://www.w3.org/Graphics/SVG/1.1/DTD/svg11.dtd">
<svg xmlns="http://www.w3.org/2000/svg" version="1.1" viewBox="0.00 0.00 100.00 100.00">
<path fill="#000000" d="
  M 49.66 53.23
  L 15.84 87.05
  A 0.49 0.49 0.0 0 1 15.14 87.05
  L 12.96 84.88
  A 0.49 0.49 0.0 0 1 12.96 84.18
  L 46.79 50.36
  A 0.49 0.49 0.0 0 0 46.79 49.66
  L 12.92 15.77
  A 0.49 0.49 0.0 0 1 12.92 15.07
  L 15.09 12.90
  A 0.49 0.49 0.0 0 1 15.79 12.90
  L 49.66 46.77
  A 0.49 0.49 0.0 0 0 50.36 46.77
  L 84.24 12.90
  A 0.49 0.49 0.0 0 1 84.93 12.90
  L 87.12 15.07
  A 0.49 0.49 0.0 0 1 87.12 15.77
  L 53.24 49.65
  A 0.49 0.49 0.0 0 0 53.24 50.35
  L 87.08 84.20
  A 0.49 0.49 0.0 0 1 87.08 84.90
  L 84.89 87.05
  A 0.49 0.49 0.0 0 1 84.20 87.05
  L 50.36 53.23
  A 0.49 0.49 0.0 0 0 49.66 53.23
  Z"
/>
</svg>
