<?xml version="1.0" encoding="UTF-8" standalone="no"?>
<!DOCTYPE svg PUBLIC "-//W3C//DTD SVG 1.1//EN" "http://www.w3.org/Graphics/SVG/1.1/DTD/svg11.dtd">
<svg xmlns="http://www.w3.org/2000/svg" version="1.1" viewBox="0.00 0.00 50.00 50.00">
<path fill="#000000" d="
  M 50.00 15.12
  L 50.00 32.97
  C 49.02 36.04 47.06 36.98 43.81 36.99
  Q 24.65 37.01 5.50 37.01
  Q 1.27 37.01 0.00 32.89
  L 0.00 14.96
  Q 1.34 11.00 4.50 11.00
  Q 24.75 11.01 45.00 10.99
  Q 48.76 10.99 50.00 15.12
  Z
  M 48.00 16.12
  A 3.12 3.12 0.0 0 0 44.88 13.00
  L 5.12 13.00
  A 3.12 3.12 0.0 0 0 2.00 16.12
  L 2.00 31.88
  A 3.12 3.12 0.0 0 0 5.12 35.00
  L 44.88 35.00
  A 3.12 3.12 0.0 0 0 48.00 31.88
  L 48.00 16.12
  Z"
/>
<rect fill="#000000" x="8.50" y="16.95" width="3.22" height="13.26" rx="0.39"/>
<path fill="#000000" d="
  M 16.27 25.03
  L 16.28 29.46
  Q 16.28 30.21 15.54 30.21
  L 14.07 30.22
  Q 13.42 30.23 13.42 29.57
  L 13.42 17.51
  Q 13.42 16.95 13.99 16.95
  L 16.97 16.96
  Q 17.55 16.96 17.63 17.52
  L 18.25 21.50
  A 0.24 0.24 0.0 0 0 18.73 21.50
  L 19.26 17.55
  Q 19.34 16.95 19.95 16.95
  L 23.21 16.95
  Q 23.71 16.95 23.71 17.46
  L 23.71 29.62
  Q 23.71 30.21 23.13 30.22
  L 21.67 30.23
  Q 21.10 30.24 21.06 29.67
  L 20.72 24.77
  A 0.19 0.19 0.0 0 0 20.34 24.76
  L 19.82 29.21
  A 1.20 1.19 42.9 0 1 17.46 29.29
  L 16.63 25.00
  A 0.18 0.18 0.0 0 0 16.27 25.03
  Z"
/>
<path fill="#000000" d="
  M 25.42 17.38
  A 0.39 0.39 0.0 0 1 25.81 16.99
  L 30.26 16.99
  A 2.94 2.86 0.0 0 1 33.20 19.85
  L 33.20 27.45
  A 2.94 2.86 -0.0 0 1 30.26 30.31
  L 25.81 30.31
  A 0.39 0.39 0.0 0 1 25.42 29.92
  L 25.42 17.38
  Z
  M 29.7968 19.6011
  A 0.59 0.59 0.0 0 0 29.2078 19.0100
  L 29.1678 19.0100
  A 0.59 0.59 0.0 0 0 28.5768 19.5989
  L 28.5632 27.3389
  A 0.59 0.59 0.0 0 0 29.1522 27.9300
  L 29.1922 27.9300
  A 0.59 0.59 0.0 0 0 29.7832 27.3411
  L 29.7968 19.6011
  Z"
/>
<path fill="#000000" d="
  M 37.97 19.52
  L 39.14 19.07
  A 1.89 1.88 -10.5 0 1 41.70 20.83
  Q 41.69 23.93 41.73 27.29
  Q 41.75 28.95 41.05 29.62
  Q 40.02 30.60 38.20 29.74
  Q 37.74 29.52 37.30 29.80
  Q 36.12 30.53 34.67 30.16
  Q 34.21 30.04 34.21 29.57
  L 34.22 17.49
  Q 34.22 16.96 34.76 16.96
  L 36.99 16.95
  Q 37.53 16.95 37.52 17.49
  L 37.48 19.18
  Q 37.46 19.71 37.97 19.52
  Z
  M 38.4541 21.2892
  A 0.46 0.46 0.0 0 0 37.9933 20.8300
  L 37.9733 20.8300
  A 0.46 0.46 0.0 0 0 37.5141 21.2908
  L 37.5259 28.0308
  A 0.46 0.46 0.0 0 0 37.9867 28.4900
  L 38.0067 28.4900
  A 0.46 0.46 0.0 0 0 38.4659 28.0292
  L 38.4541 21.2892
  Z"
/>
</svg>
