<?xml version="1.0" encoding="UTF-8" standalone="no"?>
<!DOCTYPE svg PUBLIC "-//W3C//DTD SVG 1.1//EN" "http://www.w3.org/Graphics/SVG/1.1/DTD/svg11.dtd">
<svg xmlns="http://www.w3.org/2000/svg" version="1.1" viewBox="0.00 0.00 50.00 50.00">
<path fill="#000000" d="
  M 46.99 33.88
  A 13.11 13.11 0.0 0 1 33.88 46.99
  L 16.12 46.99
  A 13.11 13.11 0.0 0 1 3.01 33.88
  L 3.01 16.12
  A 13.11 13.11 0.0 0 1 16.12 3.01
  L 33.88 3.01
  A 13.11 13.11 0.0 0 1 46.99 16.12
  L 46.99 33.88
  Z
  M 44.9844 16.0451
  A 11.08 11.08 0.0 0 0 33.8851 4.9845
  L 16.0451 5.0156
  A 11.08 11.08 0.0 0 0 4.9845 16.1149
  L 5.0156 33.9549
  A 11.08 11.08 0.0 0 0 16.1149 45.0155
  L 33.9549 44.9844
  A 11.08 11.08 0.0 0 0 45.0155 33.8851
  L 44.9844 16.0451
  Z"
/>
<circle fill="#000000" cx="37.00" cy="13.00" r="1.97"/>
<path fill="#000000" d="
  M 35.96 25.00
  A 10.96 10.96 0.0 0 1 25.00 35.96
  A 10.96 10.96 0.0 0 1 14.04 25.00
  A 10.96 10.96 0.0 0 1 25.00 14.04
  A 10.96 10.96 0.0 0 1 35.96 25.00
  Z
  M 33.97 25.00
  A 8.97 8.97 0.0 0 0 25.00 16.03
  A 8.97 8.97 0.0 0 0 16.03 25.00
  A 8.97 8.97 0.0 0 0 25.00 33.97
  A 8.97 8.97 0.0 0 0 33.97 25.00
  Z"
/>
</svg>
